<?xml version="1.0" encoding="UTF-8"?>
<svg id="Layer_1" data-name="Layer 1" xmlns="http://www.w3.org/2000/svg" viewBox="0 0 659.74 648">
  <defs>
    <style>
      .cls-1, .cls-2 {
        fill: #e1cdf9;
      }

      .cls-2 {
        stroke: #e1cdf9;
        stroke-miterlimit: 1.02;
        stroke-width: .26px;
      }
    </style>
  </defs>
  <g id="text-logo">
    <g>
      <g id="_52760edf-daeb-4285-836b-e6bbe3f20d4f-path-0" data-name="52760edf-daeb-4285-836b-e6bbe3f20d4f-path-0">
        <path class="cls-1" d="M35.76,210.29l43.22,20.23,3.18-6.79-18.83-8.81,5.78-12.35-6.8-3.18-5.78,12.35-10.81-5.06,6.36-13.59-6.79-3.18-9.54,20.38Z"/>
      </g>
      <g id="_5b3a8bda-0103-4a15-9f28-e99f70c93332-path-0" data-name="5b3a8bda-0103-4a15-9f28-e99f70c93332-path-0">
        <path class="cls-1" d="M60.49,163.17l28.7,20.11c6.36,4.45,13.99,3.3,18.64-3.34,4.46-6.37,3.33-13.99-3.26-18.61l-28.7-20.11-4.3,6.14,28.7,20.11c3.52,2.47,3.85,4.72,1.43,8.18s-4.73,3.91-8.19,1.48l-28.7-20.11-4.31,6.15Z"/>
      </g>
      <g id="_88d36a69-803d-4c9b-89fd-d116ab75ed5b-path-0" data-name="88d36a69-803d-4c9b-89fd-d116ab75ed5b-path-0">
        <path class="cls-1" d="M96.06,117.24l33.5,33.98,5.34-5.26-19.81-20.1,28.21,11.82,5.35-5.27-33.5-33.98-5.35,5.27,20.92,21.22-29.8-12.47-4.86,4.79Z"/>
      </g>
      <g id="eb629738-a1c8-4733-8bcf-ad8e6c612d0b-path-0">
        <path class="cls-1" d="M151,70.59l-11.12,7.53,26.75,39.52,11.12-7.53c6.67-4.51,7.94-12.13,3.58-18.57l-11.77-17.39c-4.35-6.43-11.89-8.07-18.56-3.56ZM168.64,107.23l-18.35-27.11,4.92-3.33c3.56-2.41,5.77-1.93,8.14,1.57l11.77,17.39c2.37,3.5,2.01,5.74-1.56,8.15l-4.92,3.33Z"/>
      </g>
      <g id="_4fb16722-b274-4070-b423-7fc8f82a22c4-path-0" data-name="4fb16722-b274-4070-b423-7fc8f82a22c4-path-0">
        <path class="cls-1" d="M210.5,52.58l1.38,3.11,6.85-3.04-1.38-3.11c-3.29-7.41-10.46-9.98-17.63-6.8s-10.03,10.51-6.85,17.67c3.04,6.85,10.18,7.63,15.57,8.22,5.81.64,9.61.97,11.13,4.39,1.77,3.99.94,5.99-2.98,7.73-4.06,1.8-6.06.99-7.8-2.95l-1.38-3.11-6.85,3.04,1.38,3.11c3.18,7.16,10.21,10.08,17.69,6.76s10.08-10.21,6.79-17.62c-3.34-7.53-11.37-8.15-17.14-8.87-5.28-.49-8.29-.88-9.56-3.74-1.75-3.93-1.01-5.96,3.05-7.76,3.92-1.74,5.96-1.01,7.73,2.98Z"/>
      </g>
      <g id="d9508f60-e767-4257-bb01-8ec902da499f-path-0">
        <path class="cls-1" d="M257.22,73.05l8.84-2.03-2.35-23.94,8.33,22.57,8.84-2.03-2.68-48.34-7.3,1.67,1.63,30.06-11.14-27.88-5.97,1.37,2.09,29.95-11.61-27.77-7.3,1.67,18.64,44.69Z"/>
      </g>
      <g id="_6e3b09e1-af1c-4b29-83cb-6629bf80f460-path-0" data-name="6e3b09e1-af1c-4b29-83cb-6629bf80f460-path-0">
        <path class="cls-1" d="M311.28,16.17l-6.23,48.02,7.51-.31.61-4.79,10.15-.42,1.02,4.73,7.49-.31-10.13-47.35-10.42.43ZM314.17,51.53l2.9-22.29,4.67,21.98-7.56.31Z"/>
      </g>
      <g id="ee14e83e-969e-4715-8dd6-010d8ea2455f-path-0">
        <path class="cls-1" d="M359.08,16.79l-5.91,47.35,22.32,2.79.93-7.43-14.89-1.86,4.98-39.92-7.43-.93Z"/>
      </g>
      <g id="_9c7b189c-2d51-4754-bd8b-8676b0bf2afa-path-0" data-name="9c7b189c-2d51-4754-bd8b-8676b0bf2afa-path-0">
        <path class="cls-1" d="M409.87,25.57l-13.44,45.79,21.59,6.34,2.11-7.19-14.4-4.23,11.33-38.6-7.19-2.11Z"/>
      </g>
      <g id="_0dbd570a-1416-47fa-8181-f0714090c8ab-path-0" data-name="0dbd570a-1416-47fa-8181-f0714090c8ab-path-0">
        <path class="cls-1" d="M458.8,42.47l-20.77,42.97,20.26,9.79,3.26-6.75-13.51-6.53,5.78-11.97,12.28,5.94,3.27-6.76-12.28-5.94,5.19-10.74,13.51,6.53,3.26-6.75-20.26-9.79Z"/>
      </g>
      <g id="bc637b04-261c-4abc-9cea-9ed6d7c05301-path-0">
        <path class="cls-1" d="M481.88,100.65l-4.15,6.23,6.23,4.15,4.15-6.23-6.23-4.15Z"/>
      </g>
      <g id="db888bb9-6a7d-490d-8e89-5c33343161a4-path-0">
        <path class="cls-1" d="M524.08,96.99l-14.87,16.7c-5.16,5.8-4.9,13.51,1.15,18.9,5.81,5.17,13.51,4.93,18.87-1.08l2.26-2.54-5.6-4.98-2.26,2.54c-2.86,3.21-5.13,3.28-8.29.47s-3.33-5.15-.52-8.31l14.87-16.7c2.9-3.26,5.12-3.29,8.32-.44s3.3,5.13.49,8.29l-2.26,2.54,5.6,4.98,2.26-2.54c5.17-5.81,4.92-13.53-1.1-18.88s-13.48-5.06-18.92,1.06Z"/>
      </g>
      <g id="_298a2682-c75d-43c2-bae2-be5dd7008af3-path-0" data-name="298a2682-c75d-43c2-bae2-be5dd7008af3-path-0">
        <path class="cls-1" d="M563.1,134.96l-17.59,13.81c-6.1,4.79-7.22,12.43-2.21,18.81,4.81,6.12,12.43,7.24,18.76,2.27l17.59-13.81c6.12-4.81,7.23-12.44,2.26-18.77s-12.37-7.36-18.81-2.3ZM550.15,154.68l17.59-13.81c3.43-2.69,5.62-2.33,8.26,1.04,2.66,3.38,2.35,5.63-.98,8.24l-17.59,13.81c-3.38,2.66-5.63,2.32-8.24-1.01-2.69-3.43-2.37-5.66.95-8.27Z"/>
      </g>
      <g id="_8ef2bc71-736c-42fa-8b5b-316dc4a5eb75-path-0" data-name="8ef2bc71-736c-42fa-8b5b-316dc4a5eb75-path-0">
        <path class="cls-1" d="M607.47,175.3l-42.65,21.41,3.36,6.7,25.22-12.66-21.24,20.59,1.84,3.66,31.7-6-27.73,13.92,3.36,6.7,42.65-21.41-4.58-9.13-30.23,5.72,22.28-21.56-3.97-7.92Z"/>
      </g>
    </g>
  </g>
  <g id="logo-logo">
    <g>
      <path class="cls-2" d="M328.35,105.55c.35,0,.71,0,1.06,0,6.84.02,13.67.06,20.49.73.67.06,1.33.12,2,.18,3.66.32,7.29.83,10.92,1.39l.91.14c4.31.66,8.61,1.33,12.88,2.21l.53.11c4.82.99,9.61,2,14.31,3.47l1.48.46c10.96,3.37,21.46,7.34,31.79,12.34l.84.41c3.28,1.6,6.49,3.3,9.68,5.07.5.28,1.01.56,1.51.84,11.87,6.54,23.44,13.88,33.76,22.71.7.6,1.42,1.18,2.15,1.75,1.42,1.15,2.74,2.39,4.06,3.65,1.01.96,2.04,1.89,3.09,2.8.68.6,1.3,1.24,1.92,1.88.49.47.98.91,1.5,1.35,1.17,1.02,2.28,2.1,3.38,3.2l.63.63c.44.43.87.87,1.31,1.31.66.66,1.32,1.32,1.98,1.97,2.07,2.06,4.08,4.11,5.86,6.43.25.29.49.59.74.88,1.56,1.82,3.07,3.69,4.54,5.59.34.44.69.87,1.04,1.31,1.75,2.2,3.4,4.46,5.04,6.74.41.57.82,1.13,1.24,1.7,3.72,5.06,7.02,10.37,10.19,15.78l.44.74c4.33,7.38,7.94,15.21,11.34,23.06l.25.58c2.38,5.47,4.68,10.94,6.66,16.57l.33.92c1.39,3.92,2.68,7.85,3.77,11.87l.39,1.41c.33,1.18.65,2.37.97,3.55.11.43.23.85.35,1.28,2.04,7.47,3.56,15.08,4.57,22.76.12.89.26,1.77.39,2.66.75,4.9,1.03,9.8,1.28,14.75l.04.86c.03.53.05,1.07.08,1.6l.04.73.03.63c.04.57.11,1.13.18,1.69.13.98.16,1.94.16,2.93v.53c0,.57,0,1.15,0,1.72v1.22c0,.85,0,1.71,0,2.56,0,.86,0,1.73,0,2.59.02,4.68-.03,9.31-.51,13.98-.08.88-.14,1.76-.18,2.64-.99,18.01-5.08,35.24-10.44,52.41-.17.55-.34,1.09-.51,1.64-4.16,13.37-9.94,26.6-16.95,38.72-.37.64-.73,1.28-1.09,1.92-1.89,3.32-3.91,6.55-5.95,9.77l-.39.61c-3.88,6.13-8.12,12.05-12.79,17.61-.53.64-1.05,1.28-1.57,1.92-1.93,2.36-3.93,4.67-5.98,6.93-.49.54-.97,1.09-1.44,1.65-.7.8-1.43,1.55-2.18,2.29-.46.46-.88.94-1.3,1.44-.93,1.07-1.91,2.08-2.91,3.08-.56.56-1.12,1.12-1.68,1.68-.57.57-1.15,1.15-1.72,1.72l-1.11,1.11q-.25.25-.51.51c-.98.98-2,1.92-3.06,2.82-.47.42-.92.86-1.36,1.31-.94.95-1.93,1.82-2.94,2.69-.29.25-.57.5-.86.74-.99.86-1.99,1.72-2.98,2.58-.16.14-.32.28-.48.42-.46.4-.93.8-1.39,1.2l-.41.35c-2.08,1.79-4.24,3.46-6.42,5.12l-.7.54c-2.03,1.54-4.08,3.03-6.15,4.51-.58.42-1.16.84-1.74,1.26-4.32,3.15-8.78,5.96-13.4,8.66-.64.38-1.27.76-1.9,1.14-10.37,6.32-21.72,11.34-33.31,14.91-1.01.31-2.03.64-3.04.96-6.82,2.17-13.64,4.23-20.64,5.72l-.6.13c-8.87,1.89-17.75,3.63-26.79,4.48-.24.02-.48.05-.72.07-1.8.18-3.61.32-5.42.44-.17.01-.34.02-.52.04-7.51.5-15,.57-22.52.48h-.62q-24.28-.32-34.7-3.84c-1.03-.34-2.07-.49-3.14-.67-16.33-2.86-32.79-8.21-47.83-15.11-.65-.3-1.29-.59-1.94-.88-2.75-1.25-5.39-2.69-8.03-4.16-.76-.42-1.52-.84-2.28-1.26-3.64-2.01-7.2-4.13-10.74-6.3-.95-.58-1.91-1.17-2.87-1.74-7.25-4.36-14.19-9.17-20.73-14.54-.42-.34-.84-.68-1.26-1.02-1.43-1.15-2.79-2.35-4.14-3.6-.92-.82-1.87-1.59-2.83-2.37-.91-.75-1.78-1.54-2.66-2.34-.51-.46-1.02-.91-1.54-1.35-1.21-1.05-2.37-2.15-3.53-3.25-.84-.78-1.68-1.56-2.54-2.3-1.03-.89-2.07-1.81-2.96-2.85v-.51h-.51q-.34-.34-.75-.83c-.78-.92-1.59-1.82-2.42-2.7-1.11-1.2-2.16-2.45-3.19-3.72-.54-.66-1.1-1.28-1.68-1.91-1.28-1.41-2.44-2.9-3.61-4.4-.41-.53-.83-1.06-1.25-1.59-2.02-2.55-3.9-5.18-5.71-7.89-.4-.59-.82-1.18-1.23-1.77-6.67-9.5-12.29-19.75-17.58-30.08-.39-.76-.78-1.52-1.18-2.28-3.66-7.06-6.74-14.39-9.27-21.93l-.29-.84c-1.92-5.71-3.53-11.5-4.86-17.37-.19-.82-.39-1.63-.59-2.45-1.48-5.92-2.59-11.89-3.63-17.9-.07-.4-.14-.8-.21-1.21-.42-2.38-.78-4.73-.95-7.13-.04-.49-.08-.98-.11-1.48l-.05-.63c-.05-.46-.11-.93-.19-1.39-.24-1.47-.29-2.96-.39-4.44l-.06-.96c-.07-1.11-.13-2.22-.19-3.33l-.04-.65c-.28-5.36-.26-10.71-.25-16.08,0-1.3,0-2.59,0-3.89,0-7.54.09-15.02.82-22.53.03-.28.05-.56.08-.85.82-8.42,2.06-16.84,4.06-25.06.15-.64.28-1.28.41-1.92.59-2.92,1.33-5.78,2.18-8.63l.2-.67c1.08-3.65,2.22-7.27,3.39-10.88l.22-.69c.9-2.79,1.88-5.53,3.01-8.23l.33-.8c1.85-4.46,3.81-8.88,5.81-13.28l.41-.89c2.5-5.49,5.14-10.84,8.15-16.07.37-.64.74-1.29,1.1-1.94,6.63-11.63,14.24-22.81,23.3-32.69.5-.55,1-1.11,1.48-1.67,1.94-2.23,3.96-4.39,6.05-6.48.43-.43.86-.87,1.29-1.3,1.69-1.7,3.43-3.26,5.32-4.75.28-.23.55-.46.83-.69,1.4-1.18,2.82-2.32,4.27-3.43,1.09-.83,2.15-1.68,3.22-2.53,3.3-2.65,6.69-5.18,10.11-7.68.2-.15.41-.3.62-.45,2.32-1.69,4.65-3.36,7.06-4.92l1.15-.76c2.57-1.69,5.18-3.32,7.83-4.89.96-.57,1.92-1.15,2.87-1.75,1.7-1.05,3.43-2.05,5.17-3.04q.23-.13.47-.27c2.94-1.68,5.9-3.32,8.89-4.92l.79-.43c7.82-4.18,15.88-7.47,24.16-10.6.59-.22,1.18-.44,1.77-.67,7.45-2.82,14.92-5.19,22.68-7l.9-.21c7.19-1.67,14.41-2.98,21.72-4,.84-.12,1.68-.26,2.52-.4,8.04-1.36,16.24-1.61,24.37-1.57ZM299.33,121.42c-.56.09-1.12.18-1.68.27-4.16.68-8.3,1.44-12.41,2.34l-.79.17c-2.73.59-5.43,1.24-8.1,2.06-.75.23-1.51.45-2.27.65-7.74,2.11-15.15,5.06-22.55,8.13-.55.23-1.09.45-1.64.68-5.03,2.08-9.92,4.35-14.72,6.92-.61.32-1.23.65-1.84.97-3.96,2.05-7.76,4.32-11.53,6.72-.93.59-1.87,1.18-2.81,1.76-3.34,2.06-6.58,4.21-9.77,6.5l-.59.42c-1.15.82-2.29,1.65-3.44,2.48-.4.29-.79.58-1.19.86-2.7,1.96-5.34,3.98-7.91,6.11-.62.52-1.25,1.02-1.88,1.53-2.39,1.96-4.75,3.97-7.01,6.09-.65.61-1.31,1.22-1.98,1.82-2.52,2.29-4.94,4.7-7.35,7.11-.48.48-.97.96-1.45,1.44-.71.7-1.42,1.41-2.12,2.12l-.65.64c-1.3,1.3-2.48,2.65-3.63,4.09-.59.73-1.22,1.41-1.87,2.1-1.4,1.5-2.65,3.09-3.89,4.7-.49.62-.98,1.24-1.48,1.85-1.86,2.29-3.58,4.66-5.28,7.06l-.37.52c-3.3,4.66-6.18,9.54-8.85,14.59l-.37.7c-1.98,3.71-3.83,7.48-5.64,11.27-.45.95-.91,1.89-1.38,2.83-1.94,3.95-3.6,7.99-5.21,12.09-.19.48-.38.95-.56,1.43-3.02,7.61-5.61,15.44-7.57,23.39l-.25,1.01c-1.22,4.92-2.27,9.85-3.08,14.86l-.08.5c-1.11,6.83-1.96,13.67-2.42,20.58-.04.64-.09,1.27-.13,1.91-.4,5.53-.49,11.05-.49,16.59,0,.53,0,1.06,0,1.59,0,6.37.17,12.7.72,19.05.07.77.13,1.54.19,2.31.23,2.72.52,5.42.91,8.12.22,1.54.39,3.08.53,4.63.25,2.65.65,5.26,1.09,7.88.04.24.08.47.12.72.51,3.07,1.04,6.14,1.64,9.2.06.29.11.57.17.87.44,2.16,1.04,4.25,1.68,6.36.16.52.31,1.04.47,1.57,4.41,14.77,10.45,29.04,18.25,42.34.41.71.82,1.43,1.22,2.15,1.76,3.15,3.59,6.24,5.57,9.26l.43.66c1.94,2.97,3.97,5.89,6.07,8.75.43.59.86,1.19,1.28,1.78,1.52,2.13,3.07,4.21,4.76,6.21.23.27.46.55.69.82,1.27,1.52,2.58,3.02,3.91,4.49.48.53.95,1.06,1.42,1.6l1.41,1.61c1.21,1.36,2.46,2.66,3.76,3.94.87.86,1.68,1.75,2.47,2.67.78.88,1.58,1.76,2.47,2.53h.51v.51q.39.39.9.8c.76.64,1.48,1.3,2.18,2.02.81.82,1.65,1.59,2.53,2.34.6.52,1.19,1.05,1.77,1.59,1.1,1,2.24,1.94,3.4,2.88.66.54,1.31,1.09,1.96,1.64,1.35,1.16,2.74,2.28,4.16,3.36.89.68,1.78,1.38,2.65,2.08,9.26,7.51,19.67,13.68,30.12,19.37.22.12.44.24.67.37,1.39.75,2.78,1.48,4.19,2.19l.72.36c5.27,2.66,10.69,4.89,16.18,7.06l.5.2c18.76,7.41,39.25,11.81,59.42,12.51,1.08.04,2.14.1,3.22.22,2.16.2,4.32.17,6.49.17h1.43c1,0,1.99,0,2.99,0,1,0,2.01,0,3.01,0,7.62.03,15.17-.13,22.74-1.03.19-.02.37-.04.56-.06,9.87-1.13,19.5-3.05,29.16-5.36.18-.04.36-.09.55-.13,11.57-2.77,22.98-6.59,33.75-11.64l.79-.37c6.03-2.8,11.96-5.89,17.64-9.36l.76-.46c6.82-4.15,13.31-8.59,19.56-13.55.36-.28.71-.56,1.07-.84,1.63-1.28,3.19-2.63,4.75-4,.64-.56,1.29-1.12,1.95-1.67,1.59-1.34,3.12-2.7,4.56-4.2.5-.49,1.01-.96,1.54-1.41,1.26-1.1,2.44-2.28,3.63-3.46q.35-.35.7-.7c.49-.49.97-.97,1.46-1.46.62-.62,1.24-1.24,1.86-1.85.6-.6,1.19-1.19,1.79-1.79l.67-.66c1.25-1.25,2.44-2.53,3.58-3.87l.77-.89c1.36-1.59,2.71-3.18,4.03-4.81.53-.64,1.06-1.28,1.6-1.91,1.21-1.41,2.38-2.86,3.52-4.32.75-.96,1.51-1.91,2.29-2.85,5.16-6.27,9.5-13.07,13.65-20.04.17-.29.34-.57.52-.87,2.18-3.67,4.2-7.43,6.07-11.27.28-.57.57-1.14.86-1.71,4.3-8.34,7.44-17.16,10.3-26.08.15-.47.31-.94.46-1.42,1.69-5.25,2.85-10.62,4.03-16,.23-1.04.46-2.07.7-3.1,2.21-9.64,3.76-19.53,4.44-29.4.01-.21.03-.42.04-.64.71-10.43.75-20.95.24-31.39l-.03-.63c-.12-2.37-.34-4.73-.65-7.08-.18-1.43-.26-2.86-.34-4.3-.26-3.95-.76-7.84-1.31-11.76l-.19-1.41c-3.05-21.91-11.14-43.07-27.45-73.58l-.35-.61c-4.5-7.75-9.72-15.03-15.39-21.96-.33-.41-.67-.82-1-1.24-1.28-1.6-2.65-3.11-4.05-4.61-.56-.6-1.11-1.21-1.64-1.84-.87-1-1.8-1.92-2.75-2.85-.51-.52-1-1.06-1.47-1.62-1.08-1.25-2.25-2.42-3.42-3.58-.37-.37-.74-.74-1.11-1.11-1.2-1.2-2.42-2.37-3.71-3.47-.59-.51-1.13-1.06-1.66-1.63-1.09-1.1-2.24-2.08-3.45-3.05-.66-.54-1.3-1.1-1.92-1.68-1.41-1.28-2.9-2.44-4.4-3.6-.54-.42-1.08-.84-1.61-1.26-2.37-1.87-4.8-3.66-7.28-5.39-.62-.43-1.24-.87-1.85-1.3-2.54-1.79-5.09-3.55-7.68-5.25-.17-.11-.35-.23-.52-.34-4.57-3-9.27-5.73-14.07-8.36l-.72-.39c-7.75-4.22-15.92-7.61-24.11-10.87l-.55-.22c-17.62-7.03-36.45-10.81-55.31-12.39l-.58-.05c-.64-.05-1.28-.1-1.92-.15-.29-.02-.57-.04-.87-.07-2.98-.21-5.96-.24-8.95-.24h-.82c-1.43,0-2.86,0-4.3,0-1.16,0-2.32,0-3.48-.01-9.33-.05-18.43.28-27.64,1.82Z"/>
      <path class="cls-2" d="M295.73,211.05q.44.34.82.77c1.16,1.24,2.47,2.27,3.79,3.33l.91.73c1.59,1.28,3.18,2.54,4.79,3.8,2.3,1.81,4.55,3.64,6.71,5.63.71.65,1.44,1.29,2.17,1.92.65.57,1.28,1.15,1.91,1.73,1.06.97,2.16,1.9,3.29,2.78.53.42,1.06.84,1.59,1.27.98.79,1.97,1.58,2.96,2.36l.53.42c.51.4,1.03.8,1.55,1.2l.48.38c.67.5,1.11.82,1.96.83.71-.3,1.21-.66,1.8-1.15l.67-.56c1.1-.95,2.17-1.92,3.24-2.89.43-.38.85-.77,1.28-1.15.64-.57,1.28-1.15,1.91-1.73,1.08-.98,2.17-1.93,3.3-2.85.99-.8,1.91-1.62,2.83-2.5,2.11-1.98,4.47-3.64,6.8-5.34l.62-.46q8.27-6.09,12.16-6.04h.79c1.83.04,3.55.23,5.33.65.94.21,1.89.32,2.84.44,2.11.27,4.15.72,6.22,1.23l.56.14c7.43,1.83,13.81,4.43,17.94,11.23.21.36.41.71.62,1.07l.28.49c1.19,2.17,1.66,4.29,1.92,6.74l.1.82c.14,1.21.28,2.42.4,3.63.47,4.6,1.86,9.35,5.49,12.48.73.54,1.49,1,2.32,1.37v.26l-.5.06c-4.44.6-8.8,1.82-13.08,3.12-.85.26-1.7.5-2.56.74l-.89.25c-2.15.43-3.68.02-5.7-.68-4.05-1.39-8.18-2.19-12.33-.67-.54.31-1.03.66-1.54,1.02l-.77-.26.09-.62c.14-.93.28-1.86.42-2.79l.15-.98.14-.94.13-.87q.11-.73.09-1.49l-.11.41q-2.93,10.58-5.01,13.16l-.4.5c-2.27,2.52-5.47,3.51-8.58,4.57q-2.96.93-4.92,3.19c-4.59,10.22.08,25.27,3.78,35.15,1.07,2.79,2.25,5.54,3.41,8.29l.29.69c.28.66.56,1.32.84,1.98l.25.6q.97,2.28,2.77,3.9c.54.12,1.09.22,1.63.3,1.11.25,1.86.42,2.59,1.31,2.61,4.34,3.42,10.18,4.46,15.07l.16.75.15.71.13.61c.12.92.1,1.81.09,2.73-2.68,1.35-5.38,2.68-8.1,3.97l-.55.26c-4.11,1.94-8.3,3.71-12.51,5.43-.82.34-1.62.68-2.4,1.09q5.06-1.19,10.01-2.73c1.43-.5,2.88-.93,4.34-1.34,2.64-.76,5.16-1.55,7.63-2.75.79-.34,1.49-.5,2.34-.6.78,1.49,1.27,2.66,1.02,4.35-1.53,2.69-5.41,3.31-8.19,4.1-1.87.49-3.75.92-5.63,1.36l-1.5.35c-1.21.28-2.41.57-3.62.85q8.98.11,17.63-2.03c.78-.27,1.51-.44,2.33-.53q.26.26.32,1.2c-.03,1.26-.31,2.13-1.24,3.03-4.61,3.71-10.9,4.1-16.56,4.05-.72,0-1.45,0-2.17,0-2.87,0-5.66-.18-8.5-.59,3.05,1.1,5.99,1.9,9.21,2.3l.56.07c5.95.73,12.14.07,17.77-1.92q.6-.2,1.12-.2c-.2,2.86-1.48,4.72-3.58,6.66-4.38,3.44-10.05,5.39-15.61,4.86-4-.56-7.56-2.44-10.75-4.86-.3-.23-.6-.45-.9-.68-.51-.38-1.03-.77-1.54-1.16-1.34-1.01-2.7-2-4.07-2.98q-6.32-4.54-6.66-6.28c-.05-4.07,2.4-8.18,5.14-11.1,3.22-3.19,7.87-4.76,11.98-6.46q7.29-2.89,12.44-8.47c.37-1.24.32-2.49.34-3.78l.02-.75c.01-1.62-.18-2.84-1.13-4.18q-.47-.48-.99-.78c-1.05-.72-1.81-1.54-2.59-2.54-.26.69-.28.96,0,1.66l.36.66c.7,1.29.97,2.2.98,3.68v.88c-.05.76-.16,1.18-.56,1.82-.98-.16-1.77-.45-2.66-.88-5.28-2.45-11.73-1.57-17.34-.95-2.68.29-5.35.47-8.04.53-.4.01-.8.02-1.2.04-2.81.11-5.59-.12-8.38-.37l-.55-.05c-1.95-.18-3.87-.39-5.79-.77-3.58-.68-9.27-1.18-12.5.75-.71.5-1.3,1.07-1.9,1.7h-.51c-.18-2.8-.16-4.8,1.54-7.17l.51-.77c-1.03.16-1.71.71-2.56,1.28-.77.36-1.19.51-2.05.51.15-1.09.41-2.06.8-3.1l.34-.92.18-.48c.19-.51.38-1.02.57-1.52.58-1.57,1.16-3.13,1.75-4.69,1.6-4.22,2.99-8.44,4.04-12.84l.18-.74c1.86-7.72,4.5-19.91.71-27.3-1.96-2.76-5.26-3.5-8.36-4.32-2.9-.78-5.01-1.89-6.8-4.4-.79-1.41-1.34-2.95-1.91-4.45-.19-.48-.39-.97-.59-1.45-.95-2.27-1.65-4.56-2.27-6.93-.15-.57-.3-1.15-.46-1.72-.24-.9-.48-1.8-.72-2.69l.31,1.4.27,1.24c.24,1.08.48,2.15.72,3.23l.14.61c.09.38.17.77.26,1.15.27,1.21.45,2.4.59,3.63l-1.12-.22-.72-.14c-.43-.09-.86-.19-1.29-.3-3.97-.98-8.07-.33-11.94.75l-.67.18c-.42.11-.84.24-1.26.36-3.04.83-6,.12-8.93-.81l-.91-.28c-1.86-.57-3.67-1.22-5.49-1.9-1.67-.6-3.28-.71-5.04-.72q.26-.77.69-1.03l.57-.26c2.51-1.33,4.42-3.54,5.35-6.23.42-1.52.66-3.07.9-4.64.91-5.8,2.72-11.61,6.83-16l.67-.74c4.04-4.34,9.4-6.67,14.88-8.7,1.85-.69,3.67-1.42,5.48-2.19l.85-.36c1.91-.82,3.78-1.7,5.6-2.72,1.09-.59,1.78-.8,2.97-.4ZM451.32,316.98h.86c.6,0,1.19,0,1.79,0,.9,0,1.8,0,2.71-.01,2.88,0,5.68-.01,8.51.57l.57.11c1.19.26,2.36.59,3.53.91l.6.16c9.49,2.53,17.97,6.5,26.13,11.9l.5.33c2.01,1.33,3.94,2.7,5.79,4.24l.5.41c7.46,6.22,13.52,14.02,14.86,23.9.04.79.04,1.57.04,2.36l.02,1.4c0,.73.02,1.45.02,2.18.02,3.14.28,5.9,1.2,8.91.09.34.17.68.26,1.02-.61-.55-.94-1.04-1.26-1.8-2.23-5.06-5.21-9.75-8.98-13.81l-.43-.47c-1.04-1.13-2.09-2.26-3.15-3.37l-.64-.67c-1.18-1.22-2.44-2.3-3.76-3.36-.46-.37-.91-.74-1.36-1.11-2.8-2.35-5.8-4.43-8.81-6.48-3.16-2.16-6.29-4.34-9.08-6.96-4.65-4.26-9.51-5.98-15.81-5.81-6.3.29-13.75,2.82-18.9,6.49.51.51,1.55.33,2.26.35,3.85.18,8.57.47,12.17,1.94.69.27,1.37.44,2.09.6,1.7.42,3.29,1.01,4.91,1.68l.9.37c3.15,1.32,6.17,2.87,9.16,4.53l.63.35c3.76,2.09,7.35,4.54,10.63,7.33l.56.47c3.52,3.08,6.84,6.36,9.42,10.28l.33.49c6.75,10.1,9.44,23.85,7.06,35.81-.23,1.04-.47,2.08-.74,3.12l-.2.77c-.42,1.63-.86,3.25-1.34,4.86l-.21.73c-.76,2.55-1.69,5.02-2.62,7.51q-1.38,3.65-2.54,7.38h-.77l-.12-.65c-.78-3.67-2.39-6.98-3.98-10.35l-.25-.53c-.61-1.3-1.23-2.59-1.85-3.88l-.25-.53c-1.6-3.35-3.41-6.56-5.59-9.58l-.39-.55c-1.61-2.23-3.36-4.31-5.21-6.34-.47-.52-.93-1.05-1.39-1.59-.79-.9-1.62-1.76-2.46-2.61l-.37-.37c-3.83-3.81-8.24-6.9-12.84-9.71-.54-.33-1.08-.67-1.62-1.02-10.25-6.48-21.63-8.95-33.57-9.35-.27-.82-.28-.97.09-1.81.17-.32.35-.64.52-.96.87-1.64,1.61-3.32,2.28-5.05l.3-.77c.99-2.59,1.84-5.22,2.67-7.86.44-1.4.88-2.79,1.32-4.19.09-.27.17-.55.26-.83.74-2.31,1.5-4.62,2.3-6.91l.17-.5c.53-1.53,1.07-3.07,1.62-4.6,2.02-5.7,3.72-11.53,4.69-17.5q.16-.73.68-1.24c1.82-.38,3.75-.3,5.6-.3ZM200.81,315.44c.62,0,1.24,0,1.86.01,1.5,0,3,.02,4.49.04.76,2.71,1.38,5.43,1.95,8.18,1.95,9.23,5.06,17.78,8.82,26.43.61,1.41,1.2,2.83,1.78,4.26.98,2.4,2.02,4.7,3.32,6.95l.26.58q.24.53,1.02.7c-.93.28-1.67.19-2.63.07-4.2-.42-8.62-.31-12.73.7l-.53.12c-11.38,2.79-21.44,10.52-28.96,19.31-.31.36-.63.71-.95,1.05-8.22,8.76-14.87,20.98-18.2,32.5q-.09.3-.18.61c-.92,3.26-1.28,6.25-1.1,9.63-.73-.88-1.18-1.85-1.63-2.89q-.12-.27-.24-.55c-.17-.39-.34-.77-.51-1.16-.25-.58-.51-1.16-.76-1.74q-3.01-6.85-3.7-9.83l-.15-.61c-.15-.63-.29-1.27-.42-1.9l-.15-.68c-.45-2.33-.47-4.64-.46-7v-.64c.02-3.22.17-6.24,1.12-9.34l.24-.81c1.12-3.68,2.41-7.26,4.11-10.71l.29-.59c2.77-5.58,6.2-11.01,10.21-15.8l.62-.75c2.72-3.29,5.7-6.35,8.71-9.38l.64-.65c1.24-1.24,2.52-2.43,3.85-3.56l.72-.63c8.29-7.06,17.01-10.76,27.95-10.64v-.77c-.15-.07-.29-.14-.44-.21-.59-.3-1.13-.65-1.68-1-2.74-1.65-5.8-2.6-8.88-3.39l-.54-.14c-.57-.14-1.13-.28-1.7-.42l-.52-.13c-5.34-1.26-10.91-1.13-15.75,1.54-3.49,2.16-6.43,5.11-9.31,8l-.7.69c-1.16,1.16-2.29,2.34-3.36,3.59-.47.55-.97,1.08-1.46,1.62-1.31,1.46-2.51,3-3.71,4.55-.43.55-.87,1.09-1.31,1.63-5.53,6.91-9.92,14.59-14.07,22.37-.79,1.48-1.61,2.93-2.45,4.38-.51.9-.97,1.81-1.42,2.75h-.26c-3.06-13.54-1.31-28.84,6.06-40.68,1.47-2.29,3.22-4.33,5.09-6.29.24-.25.48-.51.72-.76,2.14-2.29,4.52-4.19,7.07-6.02.16-.11.32-.23.48-.35,7.24-5.17,15.82-8.96,24.51-10.8l.73-.15c.81-.16,1.63-.32,2.44-.47l.5-.1c3.77-.75,7.48-.76,11.32-.71h0Z"/>
      <path class="cls-2" d="M330.9,368.17c5.31-.25,9.69,2.76,13.47,6.14,1.62,1.47,3.2,2.97,4.71,4.56,2.32,2.34,5.18,4.69,8.34,5.73l.73.24c2.62.76,5.3.7,7.98.27,1.32,2.84,2.06,5.93,2.82,8.96.06.23.12.46.18.7,1.53,6.97-.9,14.61-4.49,20.56-1.76,2.71-3.8,5.25-5.93,7.67-.32-.96-.18-1.74-.06-2.72l.14-1.21.08-.64c.39-3.3.71-6.58.73-9.9v-.84c0-2.77-.84-5.31-2.11-7.76l-.26-.52c-1.04-1.98-2.28-3.78-3.9-5.34l.41.64c2.82,4.43,3.69,8.84,2.74,14.11-.23.92-.5,1.78-.85,2.65l-.28.74c-1.08,2.43-2.8,4.51-4.4,6.62-.39.52-.78,1.04-1.16,1.57l-.32.44c-.28.38-.55.76-.83,1.14l-.43.5h-.51l-.04-.99c-.11-2.69-.31-5.32-.73-7.97-.05.18-.11.37-.16.55-1.37,4.43-4,7.77-6.96,11.23-1.23,1.44-2.39,2.92-3.54,4.41-.33.42-.66.84-1,1.25-1.62,2.03-2.94,4.17-4.21,6.43-.24.41-.5.81-.76,1.2-1.07-.36-1.33-1.1-1.87-2.03-.97-1.62-2.03-3.1-3.22-4.58-2.79-3.51-5.62-7.31-6.43-11.82q-.1,4.91.77,9.73c-1.06-.35-1.43-1.08-2.03-1.97l-.37-.55c-4.41-6.64-7.79-14.13-8.86-22.06h-.26l-.08.82c-.21,1.87-.4,3.59-1.19,5.32h-.77c-2.79-5.44-3.4-10.8-1.54-16.64v-.51c-3.91,7.3-3.88,13.17-1.59,21.07.79,2.57,1.82,5.04,2.89,7.51l.39.91.36.81q.25.67.25,1.44c-4.04-1.88-6.65-6.89-8.96-10.49l-.52-.81c-3.9-6.34-6.15-14.47-4.52-21.87q.88-3.57,1.46-4.72.11-.75,0-1.54-.49-.58-1.02-1.02v-.51q.43.06.86.12c5.61.69,10.61-.11,15.19-3.53,1-.79,1.94-1.63,2.88-2.48q11.85-10.51,18.79-11.05Z"/>
      <path class="cls-2" d="M416.8,300.13c.84.68,1.08,1.47,1.43,2.47l.18.51c.2.55.39,1.11.59,1.67.21.58.41,1.16.62,1.73.14.39.28.78.42,1.16.59,1.67,1.22,3.32,1.84,4.97,1.69,4.47,3.13,8.98,4.27,13.63l.15.61c1.05,4.37,1.37,8.6,1.33,13.08v.82c-.02,3.89-.11,7.71-.86,11.55l-.12.62c-.26,1.34-.56,2.67-.91,3.99l-.14.54c-1.21,4.64-3.07,8.8-5.75,12.77l-.78,1.17c-2.79,4.18-5.93,8.07-9.11,11.95-.97,1.19-1.93,2.39-2.88,3.6-1.96,2.48-3.97,4.93-6.24,7.13-.64.64-1.22,1.33-1.81,2.01-.56.63-1.16,1.22-1.76,1.81-.46.47-.89.95-1.31,1.44-.88,1.02-1.79,2.01-2.71,2.99l-.5.53c-1.76,1.86-3.56,3.68-5.37,5.48-.56.55-1.11,1.11-1.67,1.67l-1.08,1.08-.49.49c-.97.96-1.97,1.88-3,2.77-.77.67-1.52,1.37-2.26,2.07-1.08,1.01-2.18,2.01-3.3,2.98-.72.64-1.43,1.29-2.14,1.95l-.43.4-1.3,1.2c-.56.52-1.12,1.04-1.68,1.55l-.74.68q-1.52,1.35-2.19,1.35c.36-.99.82-1.79,1.42-2.66,1.96-2.9,3.66-5.92,5.32-9,.86-1.58,1.76-3.13,2.69-4.66,3.82-6.28,7.21-12.78,9.5-19.77l.25-.75c2.29-7.14,2.92-14.53,2.78-21.99q-.18-11.63,3.38-15.59c.52-.6.98-1.22,1.43-1.87,1.53-2.2,3.2-4.25,4.96-6.27,8.89-10.17,13.51-20.97,16.26-34.1.08-.37.16-.75.24-1.12.43-2.02.78-4.02.94-6.08q.19-2.3.48-2.59ZM499.99,282.47c1.74.34,3.31.85,4.94,1.54l.74.31c4.36,1.84,8.47,4.11,12.57,6.47.63.36,1.27.72,1.9,1.07l.56.31c.33.18.67.37,1,.55.44.25.88.5,1.31.76l.49.27c.91.55,1.39.98,1.67,2.02.07.4.14.81.2,1.21l.11.67c.12.74.24,1.48.35,2.22.09.53.17,1.06.26,1.58.46,2.8.85,5.61,1.18,8.43l.09.73c.1.86.18,1.71.27,2.57l.06.62c.4,4.04.52,8.03.51,12.09v1.83c0,1.27,0,2.53,0,3.8,0,1.61,0,3.21,0,4.82,0,1.25,0,2.51,0,3.76v1.77c0,2.9-.03,5.79-.15,8.69l-.03.67c-.14,2.98-.7,5.91-1.4,8.8h-.51l-.14-.5c-2.31-8.17-5.53-15.52-10.35-22.54l-.44-.65c-2.09-3.01-4.4-5.71-6.98-8.31l-.45-.47c-.95-.97-1.93-1.85-3-2.69l-.47-.36c-3.04-2.34-6.31-4.32-9.65-6.21l-.47-.27c-5.23-2.95-10.77-5.18-16.43-7.16l-.58-.21c-2.36-.85-4.77-1.37-7.22-1.89l-.92-.19c-4.02-.82-7.85-1.12-11.95-1.09-.76,0-1.53,0-2.29,0-2.42,0-4.83.03-7.24.3l-.04-.57q-.42-6.2-1.4-12.34c-.12-.82-.11-1.62-.09-2.45,3.45-1.22,6.95-2.19,10.49-3.12.85-.23,1.7-.47,2.55-.71,2.81-.8,5.65-1.47,8.49-2.14.65-.15,1.29-.31,1.93-.46,2.74-.66,5.49-1.28,8.27-1.76l.85-.15c1.14-.11,1.72-.02,2.67.66.73.66,1.42,1.36,2.11,2.06.4.34.82.67,1.23.99,4.82,3.82,9.55,8.03,13.1,13.09l.3.42c2.16,3.05,4,6.31,5.84,9.56l.42.74c2.03,3.59,3.83,7.28,5.54,11.03q2.28,5.42,6.07,9.47c-.33-10.37-2.26-19.93-5.89-29.69l-.32-.87q-3.22-10.32-9.66-18.59v-.51ZM249.4,403.03l-.3.88c-.36,1.06-.67,2.14-.98,3.22-.43,1.51-.91,2.99-1.41,4.48-2.45,7.19-4.24,14.45-5.75,21.89l-.1.5c-.99,4.87-1.8,9.73-2.37,14.66-.07.56-.14,1.11-.21,1.66-.14,1.14-.21,2.28-.27,3.43l-.03.67c-.11,2.56-.13,5.13-.13,7.69v.75c0,6.02.16,12.05,1.33,17.98l.11.58c1,5.2,2.46,10.28,3.97,15.36l.19.65c.77,2.6,1.61,5.17,2.57,7.71l.22.58.19.5c.17.5.31.99.42,1.51q-11.88-6.45-16.64-10.24l-.71-.56c-1.47-1.18-2.88-2.42-4.26-3.7-.55-.5-1.12-.98-1.69-1.46-6.24-5.47-9.24-14.32-10.99-22.17l-.13-.58c-.78-3.49-1.05-6.81-1-10.38v-.74c.13-16.44,6.36-31.27,17.99-42.89,5.08-4.94,11.52-8.55,17.91-11.52l.55-.26q.52-.18,1.55-.18ZM237.62,298.34c.89,3.07,1.67,6.12,2.18,9.28,1.19,6.79,3.62,13.84,7.8,19.39l.59.81c2.64,3.57,5.76,6.82,9.14,9.69l.77.66c1.31,1.11,2.63,2.22,3.97,3.29,1.26,1.02,2.45,2.11,3.63,3.22.61.57,1.18,1.07,1.88,1.53-.12,1.27-.78,2.14-1.49,3.17-2.68,4.02-4.94,8.28-6.19,12.96l-.16.55c-2.38,8.38-1.03,18.25,2.46,26.07l.33.74c1.88,4.23,3.93,8.39,5.95,12.55l.24.49c.42.86.85,1.71,1.3,2.56l.38.81-.26.51c-3.29-2-6.16-4.26-8.83-7.04-.52-.52-1.06-1-1.61-1.48-1.09-.95-2.12-1.95-3.14-2.98l-.52-.52c-1.15-1.16-2.24-2.36-3.31-3.6l-.67-.77c-4.45-5.2-8.3-10.78-11.89-16.6-.65-1.05-1.31-2.1-1.96-3.15-.48-.77-.96-1.54-1.44-2.31-.6-.97-1.21-1.93-1.82-2.9-6.19-9.83-10.44-20.55-10.42-32.3v-.55c0-2.61.04-5.15.56-7.72l.11-.55c.81-3.97,2.25-7.72,3.73-11.48l.33-.83q5.31-13.5,8.38-13.5ZM249.65,255.34c1.4.1,2.48.65,3.7,1.3l.64.34c3.28,1.79,6.26,4.04,9.27,6.24l.62.45c.38.27.75.55,1.13.83q2.43,1.87,5.32,2.48c1.02-.2,1.98-.55,2.95-.91q.7-.22,1.72-.22l.23.44c.36.67.72,1.34,1.08,2.01l.37.69c1.78,3.28,4.17,5.4,7.79,6.48,1.42.32,2.78.4,4.23.42h.59c.81.01,1.63.02,2.44.02.6,0,1.2,0,1.8.01h.56q.52,0,1.39.16c.82.9.89,1.8.95,2.99l.03.5c.08,1.67.04,3.34,0,5.02-.08,4.29.21,8.31,1.02,12.52.33,1.77.47,3.53.56,5.33l.04.67c.13,2.56.03,4.5-1.32,6.75l-.41.75c-1.94,3.53-4.16,6.91-6.33,10.31-2.38,3.72-4.5,7.47-6.37,11.47-.62,1.31-1.26,2.59-2,3.83l-.77-.26-.07-.51c-1.23-8.84-4.44-15.03-10.14-21.82-.6-.71-1.18-1.44-1.74-2.19-1.64-2.14-3.55-4.12-5.51-5.96-4.74-4.51-7.81-9.97-9.93-16.11l-.32-.89c-.85-2.53-1.29-5.18-1.73-7.81l-.14-.84c-.13-1.06-.16-2.09-.16-3.16v-.63c0-.44,0-.88,0-1.32,0-.66,0-1.32-.01-1.98,0-2.09.05-4.16.29-6.24l.06-.53c.23-1.75.7-3.42,1.68-4.89q.37-.58.36-1.14c-.52-.95-1.52-1.49-2.39-2.1-.91-.66-1.43-1.15-1.73-2.25l.26-.26ZM410.91,255.08c-.08.75-.25,1.01-.8,1.56l-.71.56-.77.61c-1,.76-2,1.5-3.03,2.22-.5.38-.93.75-1.36,1.21.26.69.52,1.29.93,1.9.42.78.41,1.32.35,2.19l-.51.26.34.39c2.62,3.89,1.92,9.19,1.08,13.51q-4.08,19.99-10.79,25.16c-1.41,1.12-2.69,2.35-3.96,3.64l-.68.69c-1.49,1.51-2.88,3.04-4.17,4.74-.22.27-.43.55-.65.82-3.77,4.76-6.06,9.88-6.05,16.01v.76c.01,1.5.09,2.93.45,4.39.13.62.13,1.19.11,1.82-2.27-.92-3.18-4.32-4.17-6.42-1.86-3.94-3.91-7.52-6.52-11.01-9.08-12.29-10.49-23.6-8.27-38.39.06-.4.12-.8.19-1.2.08-.56.16-1.12.24-1.68l.13-1,.11-.85q.11-.62.37-.88c2.23-.33,4.49-.33,6.74-.38,4.26-.09,7.8-.35,10.92-3.46l.41-.39c1.35-1.42,2.09-3.24,2.92-4.99.17-.34.34-.68.51-1.02l.59.17q2.76.84,5.47.25c.82-.53,1.61-1.1,2.39-1.7l.97-.73c.52-.39,1.04-.78,1.55-1.17,3.72-2.8,7.61-5.26,11.97-6.95l.5-.2c1.09-.4,2.03-.49,3.18-.43ZM271.67,417.88c.73.33,1.26.69,1.84,1.25l.46.44.49.47c1.38,1.32,2.8,2.54,4.31,3.7,1.65,1.27,3.22,2.65,4.78,4.03.35.3.69.6,1.04.89,1.19,1.01,2.2,2.1,3.21,3.3l.55.62c3.16,3.65,4.58,7.93,6.1,12.43l.22.65c1.83,5.36,3.19,10.88,3.87,16.5l.07.56c.36,2.97.49,5.94.52,8.93v.55c.02,1.71.03,3.42.04,5.13.02,4.63.17,9.16.91,13.75l.09.56c.47,2.88,1.36,5.64,2.24,8.42.24.78.48,1.55.71,2.33.61,1.99,1.29,3.95,1.98,5.92l.2.57c.99,2.81,2.05,5.57,3.26,8.29l.3.7.27.6q.16.51-.1,1.28c-1.51-1.75-2.98-3.51-4.37-5.35-1-1.32-2.05-2.6-3.1-3.87-.87-1.07-1.72-2.15-2.55-3.25-.95-1.25-1.96-2.41-3.03-3.55-.76-.82-1.49-1.66-2.18-2.53-.82-1.02-1.67-1.99-2.56-2.94-1.3-1.4-2.52-2.86-3.71-4.35-.24-.29-.47-.57-.71-.86-1.76-2.15-3.35-4.38-4.9-6.68-.67-1-1.37-1.98-2.09-2.96-2.46-3.41-4.63-7.02-6.61-10.73-.18-.34-.37-.68-.55-1.02-4-7.31-5.61-15.1-6.39-23.32l-.07-.74c-.69-7.34-.27-14.4,2.06-21.41l.2-.59c.89-2.67,1.96-5.21,3.2-7.73ZM162.62,282.73c-.53.57-1.01.93-1.71,1.27l-.55.28-.58.29c-3.94,2.04-5.78,4.57-7.18,8.75-.85,2.43-1.75,4.84-2.7,7.23-2.73,6.91-4.26,13.85-5.45,21.17-.19,1.17-.41,2.33-.67,3.49-.15.86-.12,1.7-.09,2.57.67-.09.96-.18,1.41-.69.92-1.45,1.69-2.94,2.42-4.49,1.33-2.74,2.93-5.23,4.67-7.73.44-.64.87-1.28,1.3-1.92,1.68-2.52,3.48-4.88,5.41-7.21.5-.61.98-1.23,1.46-1.86,1.35-1.76,2.8-3.38,4.33-4.99.59-.63,1.17-1.28,1.73-1.94.71-.82,1.47-1.52,2.3-2.22.65-.56,1.27-1.14,1.89-1.72,2.84-2.58,5.96-4.74,9.15-6.86.44-.3.88-.6,1.31-.91,2.43-1.64,4.94-1,7.67-.47l1.18.23c.68.13,1.35.26,2.03.39,1.68.32,3.36.62,5.05.91,2.4.41,4.79.87,7.18,1.36,1.68.34,3.36.66,5.04.96-.17,2.52-.36,5.04-.56,7.55-.03.39-.06.79-.09,1.18-.16,2.18-.38,4.34-.75,6.5l-.09.56q-.23,1.29-.81,1.87-.64.06-1.45.05h-.93s-1.01-.02-1.01-.02c-.35,0-.7,0-1.04,0-1.48-.01-2.95-.03-4.43-.05-4.08-.05-8.07-.05-12.1.7-.57.1-1.13.19-1.7.28-12.55,1.94-25.97,8.11-34.93,17.22l-.55.53c-1.48,1.44-2.79,2.96-4.06,4.59l-.33.41c-4.89,6.1-7.23,13.26-9.29,20.67l-.46,1.65c-.11.39-.22.79-.33,1.19-.17.61-.34,1.22-.52,1.82l-.16.57c-.13.45-.28.9-.44,1.34l-.51.26c-.6-5.82-1.13-11.63-1.38-17.48l-.03-.6c-.02-.53-.04-1.06-.07-1.59-.04-.81-.11-1.61-.19-2.42-.14-1.48-.16-2.94-.16-4.43v-.82c0-.57,0-1.13,0-1.7,0-.87,0-1.73,0-2.6v-1.66s0-.78,0-.78c0-1.22.07-2.35.29-3.55.03-.55.05-1.1.06-1.64l.02-.96v-.51c.14-5.35.51-10.66,1.18-15.97l.12-1q.6-4.59,1.68-5.84l.63-.4.76-.5c.31-.19.61-.37.92-.56l.56-.35c1.51-.93,3.03-1.84,4.56-2.73l.6-.35c6.59-3.81,12.66-6.49,20.39-6.31ZM407.59,406.1c.66.42,1.31.83,1.96,1.25.57.36,1.14.72,1.71,1.08,3.01,1.9,5.9,3.85,8.5,6.3.52.49,1.05.96,1.6,1.42,2.32,2.03,4.5,4.25,6.41,6.67.59.75,1.21,1.47,1.83,2.2,1.3,1.56,2.48,3.19,3.58,4.9l.3.45c4.81,7.45,7.87,16.21,9.43,24.89l.15.78c.45,2.51.46,5,.46,7.54v.69c-.02,3.41-.13,6.65-1.12,9.93l-.25.82c-2.59,8.46-5.92,14.1-12.39,20.07-.7.64-1.37,1.3-2.03,1.98-1.17,1.18-2.46,2.2-3.76,3.23-.29.24-.58.47-.87.71-4.75,3.87-9.73,7.35-15.25,10.04.6-1.87,1.31-3.67,2.06-5.49.51-1.24,1.01-2.48,1.52-3.73l.34-.83c3.22-7.96,5.69-16.28,7-24.77.08-.5.16-.99.24-1.49.84-5.47.97-10.94.98-16.47,0-.54,0-1.08,0-1.62.03-8.77-.75-17.45-3.04-25.95-.17-.64-.33-1.27-.49-1.91-1.85-7.38-4.28-14.9-8.51-21.29q-.37-.63-.37-1.4ZM388.39,421.97c1.43,1.32,2.22,2.86,3.07,4.59.17.34.34.67.51,1,5.31,10.14,2.93,25.37-.23,35.73-.78,2.47-1.64,4.9-2.58,7.31l-.34.88c-2.3,5.82-4.83,11.27-8.61,16.27l-.34.46c-.73.96-1.47,1.92-2.22,2.87-.21.28-.42.55-.63.83-1.18,1.56-2.41,3.08-3.68,4.56-1.91,2.24-3.69,4.59-5.48,6.93-.88,1.15-1.77,2.29-2.67,3.42-.79,1-1.56,2.01-2.33,3.03-4.3,5.67-9.17,11.51-14.9,15.79l-.26-.51q.24-.53.63-1.19l.45-.78.5-.86c6.54-11.47,12.29-23.37,13.19-36.69.09-1.39.2-2.78.31-4.16l.07-.86c.23-2.99.55-5.98.88-8.96l.08-.73q.49-4.4.92-6.33c.16-.78.26-1.56.36-2.35.25-1.79.63-3.52,1.07-5.27l.24-.93c1.13-4.36,2.41-8.64,4.6-12.59.25-.46.5-.92.74-1.38,1.75-3.25,4.14-5.99,6.53-8.79.61-.72,1.21-1.45,1.8-2.18.39-.48.78-.95,1.17-1.42l.33-.4c2.13-2.58,4.44-4.94,6.83-7.27Z"/>
      <path class="cls-2" d="M374.05,242.28c.75.33,1.24.68,1.79,1.29l.44.48.47.52c3.39,3.66,6.68,7.21,10.89,9.94.47.31.94.62,1.4.94,1.12.77,2.16,1.47,3.44,1.94v.51c-2.45.82-4.22.48-6.61-.35-4.05-1.39-8.18-2.19-12.33-.67-.54.31-1.03.66-1.54,1.02l-.77-.26.09-.62c.14-.93.28-1.86.42-2.79l.15-.98.14-.94.13-.87q.11-.73.09-1.49l-.11.41q-2.93,10.58-5.01,13.16l-.4.5c-2.27,2.52-5.47,3.51-8.58,4.57q-2.96.93-4.92,3.19c-4.59,10.22.08,25.27,3.78,35.15,1.07,2.79,2.25,5.54,3.41,8.29l.29.69c.28.66.56,1.32.84,1.98l.25.6q.97,2.28,2.77,3.9c.54.12,1.09.22,1.63.3,1.11.25,1.86.42,2.59,1.31,2.61,4.34,3.42,10.18,4.46,15.07l.16.75.15.71.13.61c.12.92.1,1.81.09,2.73-2.68,1.35-5.38,2.68-8.1,3.97l-.55.26c-4.11,1.94-8.3,3.71-12.51,5.43-.82.34-1.62.68-2.4,1.09q5.06-1.19,10.01-2.73c1.43-.5,2.88-.93,4.34-1.34,2.64-.76,5.16-1.55,7.63-2.75.79-.34,1.49-.5,2.34-.6.78,1.49,1.27,2.66,1.02,4.35-1.53,2.69-5.41,3.31-8.19,4.1-1.87.49-3.75.92-5.63,1.36l-1.5.35c-1.21.28-2.41.57-3.62.85q8.98.11,17.63-2.03c.78-.27,1.51-.44,2.33-.53q.26.26.32,1.2c-.03,1.26-.31,2.13-1.24,3.03-4.61,3.71-10.9,4.1-16.56,4.05-.72,0-1.45,0-2.17,0-2.87,0-5.66-.18-8.5-.59,3.05,1.1,5.99,1.9,9.21,2.3l.56.07c5.95.73,12.14.07,17.77-1.92q.6-.2,1.12-.2c-.2,2.86-1.48,4.72-3.58,6.66-4.38,3.44-10.05,5.39-15.61,4.86-4-.56-7.56-2.44-10.75-4.86-.3-.23-.6-.45-.9-.68-.51-.38-1.03-.77-1.54-1.16-1.34-1.01-2.7-2-4.07-2.98q-6.32-4.54-6.66-6.28c-.05-4.07,2.4-8.18,5.14-11.1,3.22-3.19,7.87-4.76,11.98-6.46q7.29-2.89,12.44-8.47c.37-1.24.32-2.49.34-3.78l.02-.75c.01-1.62-.18-2.84-1.13-4.18q-.47-.48-.99-.78c-2.07-1.31-2.95-3.13-3.79-5.36l-.32-.83c-1.87-4.87-3.63-9.79-5.13-14.78-.11-.33-.21-.67-.32-1-1.99-6.15-3.06-12.31-3.04-18.77v-.59q.05-17.6,4.57-22.62c1.43-1.33,3.04-1.73,4.9-2.15,1.85-.43,3.26-.87,4.64-2.22l.6-.55c1.71-1.63,3.12-3.45,4.52-5.34.53-.71,1.06-1.42,1.58-2.13.13-.18.26-.35.39-.53.8-1.07,1.62-2.1,2.53-3.08.41-.46.77-.94,1.13-1.43ZM330.54,454.99c.78.73,1.34,1.47,1.9,2.38,1.21,1.85,2.64,3.46,4.1,5.11.73.83,1.42,1.7,2.12,2.56.66.8,1.33,1.59,2,2.38,1.17,1.38,2.33,2.78,3.44,4.21l.35.44c3.12,3.97,5.29,8.19,7.46,12.74l.34.71c.84,1.92,1.19,3.52.59,5.57-1.7,4.31-4.48,8.25-7.45,11.77l-.36.43c-.59.7-1.19,1.41-1.78,2.11-.82.96-1.61,1.93-2.4,2.91-.47.56-.95,1.12-1.44,1.67-.92,1.05-1.74,2.15-2.54,3.29l-.43.6c-.68.95-1.35,1.9-2.02,2.85l-.34.49c-.3.43-.61.86-.91,1.3-.57.76-1.12,1.42-1.85,2.03-.81-.08-1.23-.37-1.79-.94l-.42-.42-.43-.45-.45-.46c-.9-.92-1.78-1.87-2.61-2.85-.54-.62-1.1-1.22-1.66-1.82-1.35-1.48-2.58-3.03-3.79-4.61-.36-.46-.72-.92-1.09-1.37-1.97-2.49-3.75-5.1-5.5-7.74l-.36-.55q-5.1-7.66-4.67-10.52c1.87-6.39,5.8-11.89,9.73-17.15l.38-.51c1.86-2.49,3.74-4.96,5.64-7.42,1.48-1.92,2.96-3.85,4.37-5.83l.31-.43c.56-.79,1.09-1.61,1.58-2.45Z"/>
      <path class="cls-2" d="M455.45,397.66c1.15.98,2.24,2.02,3.33,3.07l.47.45c2.14,2.05,4.1,4.15,5.86,6.54.32.42.63.85.96,1.27,7.94,10.59,11.25,23.62,13.82,36.38.09.45.18.9.28,1.35.56,2.73.89,5.5,1.14,8.28-.65-.58-.98-1.13-1.34-1.91l-.33-.7-.35-.76c-3.28-6.98-7.05-13.64-12.3-19.34-.46-.5-.91-1.01-1.34-1.53-2.02-2.32-4.25-4.49-6.61-6.46l-.71-.61c-4.77-4.12-9.91-7.65-15.23-11-.96-.61-1.92-1.22-2.88-1.84-3.2-2.08-6.47-3.96-9.85-5.74l-1.38-.74c-5.71-3.03-11.5-5.96-17.56-8.22v-.51l.78-.38c1.69-.83,3.35-1.66,4.93-2.68,13.11-8.23,27.02-4.21,38.32,5.1Z"/>
      <path class="cls-2" d="M296.3,321.09c.64.4.76.81,1.01,1.52l.25.68c.42,1.28.47,1.7-.04,2.95-.42,2.33-.84,5.35.51,7.42,4.17,5.19,11.11,8.03,17.19,10.2,5.94,2.12,8.72,5.28,11.54,10.91.74,1.58,1.12,3.02.54,4.73-1.17,2.25-3.41,3.69-5.45,5.07l-.79.54c-.52.36-1.05.72-1.57,1.07-.63.43-1.27.87-1.9,1.31-.82.57-1.64,1.13-2.47,1.69-.3.21-.61.42-.91.62-5.06,3.48-10.93,5.65-17.16,4.65-4.04-.97-8.31-2.98-10.73-6.48-.83-1.37-1.37-2.5-1.34-4.12,2.13.16,4.15.58,6.23,1.07,3.1.71,6.18.79,9.35.8h.6c4.28,0,8.25-.48,12.23-2.13.51-.17,1.02-.34,1.54-.51l-.91.17c-6.94,1.15-14.78,1.34-21.62-.42l-.61-.15q-5.72-1.42-7.65-3.4c-.59-1.06-.57-1.65-.45-2.85l.26-.26c1.88.14,3.69.51,5.54.9,2.33.48,4.61.91,6.99,1.04l.58.03c2.71.14,5.42.1,8.14.08-2.07-.57-4.14-1.1-6.24-1.57l-.63-.14c-.85-.19-1.7-.38-2.56-.57-2.34-.52-4.65-1.08-6.93-1.83l-.57-.19c-1.44-.49-2.92-1.05-3.81-2.35-.27-1.45.4-2.82,1.02-4.1,2.02.38,3.92,1.05,5.85,1.73,4.11,1.45,8.26,2.72,12.45,3.9,1.35.39,2.7.8,4.04,1.22,2.44.75,4.88,1.45,7.34,2.11-.76-.4-1.53-.71-2.34-1l-.8-.29-.87-.32c-5.89-2.17-11.71-4.43-17.41-7.06l-.6-.27c-2.49-1.15-4.97-2.35-7.42-3.6.62-3.34,1.3-6.65,2.18-9.93l.21-.81c.88-3.24,3.86-11.85,8.17-12.07Z"/>
      <path class="cls-2" d="M238.42,393.16c.33.3.66.61.99.91-.67.67-1.25.77-2.16,1.04-4.73,1.52-8.96,4.09-13.2,6.64l-1.55.92c-2.81,1.68-5.53,3.45-8.18,5.37-.69.5-1.4.97-2.1,1.45-3.73,2.53-7.28,5.32-10.61,8.36-.52.47-1.05.94-1.59,1.4-3.79,3.31-7.46,6.71-10.47,10.75-.29.39-.59.77-.89,1.15-5.46,7.03-9.39,15.19-12.22,23.58h-.51c-.05-1.88.09-3.69.32-5.55l.1-.86c.07-.61.15-1.23.23-1.84.12-.98.24-1.97.35-2.95.45-3.77,1.02-7.46,1.91-11.15.16-.67.31-1.34.45-2.02,2.16-9.77,6.25-18.99,12.5-26.82l.6-.76c2.29-2.87,4.7-5.43,7.6-7.69.46-.39.92-.78,1.38-1.17,9.76-7.97,27.2-9.42,37.05-.77h0Z"/>
      <path class="cls-2" d="M430.62,190.06l.81.4c4.52,2.45,7.82,6.27,10.45,10.6l.45.68c.71,1.34.17,2.82-.23,4.21-2.18,7.11-6.64,13.39-11.66,18.8-.5.54-.99,1.1-1.47,1.66-.77.88-1.56,1.73-2.37,2.58-.12.13-.24.26-.36.39q-.35.36-1,.87c-.79-.09-1.26-.38-1.86-.88l-.47-.39-.49-.41c-1.38-1.13-2.78-2.17-4.29-3.15-1.06-.69-2.09-1.42-3.12-2.15l-.56-.39q-2.03-1.43-2.78-2.1v-.51l.67-.36c5.74-3.14,11.55-7.81,13.56-14.27q.13-.52.1-1.24c-3-1.46-6.19-1.33-9.47-1.34-.53,0-1.06-.01-1.59-.02-4.67-.04-8.49,1.43-12.23,4.18l-.54.39c-1.81,1.44-2.85,3.33-3.56,5.5-1.04-.38-1.94-.89-2.88-1.47l-.44-.27q-3.32-2.08-4.1-2.86c-.28-2.79-.13-5.84,1.58-8.14.89-1.07,1.81-2.12,2.77-3.13l.53-.57c4.33-4.57,10.47-7.6,16.58-8.94l.55-.13c6.1-1.39,11.86-.32,17.41,2.48ZM240.79,188.42q.28,0,.56,0c8.4.09,16.02,2.69,22.38,8.3,2.48,2.78,5.32,7.59,5.39,11.43-.4.92-1.15,1.3-1.98,1.79l-.48.3c-.46.28-.93.56-1.4.82l-.82.47q-.71.3-1.23.29c-.75-.36-1.36-.88-2-1.4-5.94-4.69-12.92-7.58-20.58-6.72-2,.28-3.78.81-5.58,1.73.68,4.97,6.54,10.74,10.36,13.65,1.18.77,2.44,1.38,3.72,1.96-.37,1.11-1.23,1.39-2.21,1.94q-6.26,3.57-11.36,8.56c-3.14-1.97-5.68-4.76-7.86-7.74-.34-.46-.69-.91-1.04-1.36-3.45-4.5-6.32-9.57-7.75-15.09l-.16-.62c-.73-3.1-.3-5.64,1.29-8.38.78-1.16,1.73-2.16,2.71-3.15l.47-.48c4.63-4.37,11.3-6.4,17.54-6.29h0Z"/>
      <path class="cls-2" d="M198.72,224.62l.54.19c4.4,1.56,8.43,4.08,12.26,6.72.52.34,1.05.68,1.57,1.02,1.42.95,2.74,1.99,4.06,3.07.4.32.8.64,1.2.96l6.48,5.18c-.35.79-.76,1.32-1.36,1.94-1.73,1.91-3.1,4.11-4.53,6.26l-.34.5c-2.42,3.59-4.82,7.61-6.06,11.78h-.51q-.37-.38-.8-.91c-.77-.91-1.59-1.68-2.5-2.45-1-.88-1.91-1.83-2.84-2.78-.73-.74-1.47-1.47-2.21-2.2l-1.01-1-.51-.51c-.87-.86-1.66-1.73-2.42-2.69-.3-.28-.6-.55-.91-.82-.83-.71-1.64-1.44-2.45-2.19-1.5-1.37-3.08-2.61-4.68-3.84-.54-.43-1.09-.86-1.62-1.29l-1.34-1.07-.5-.4c-6.25-5.02-12.52-8.24-20.6-8.9-.48-.04-.95-.11-1.43-.17l-.26-.51c5.45-2.71,10.77-4.73,16.68-6.22.59-.15,1.18-.31,1.77-.47,4.71-1.15,9.77-.83,14.31.79Z"/>
      <path class="cls-2" d="M168.83,259.08h.59c7.15.03,14.11,1.42,21.09,2.81.76.15,1.52.29,2.27.44,5.32,1.03,10.62,2.2,15.83,3.71l.78.22c.99.29,1.76.53,2.63,1.1.13,1.1-.1,2.08-.35,3.15-.8,3.44-1.36,6.94-1.95,10.42-1.64-.19-3.22-.57-4.82-.96l-.87-.21c-1.58-.38-3.15-.79-4.72-1.25-2.93-.84-5.93-1.47-8.91-2.13-.96-.21-1.91-.43-2.86-.66-8.5-2.06-17.05-3.01-25.78-3.05h-.72c-5.89-.03-11.78.33-17.27,2.64q-.62.24-1.13.24c.11-1.41.5-2.38,1.28-3.54l.31-.47c.97-1.43,2.05-2.71,3.27-3.93l.52-.53c1.67-1.59,3.62-2.7,5.62-3.82l.54-.31c4.72-2.67,9.17-3.9,14.63-3.89ZM506.93,265.22c2.87,2.57,5.86,5.25,7.91,8.55v.51c-1.25-.27-2.49-.56-3.72-.88-12.71-3.25-25.57-2.57-38.26.36l-.84.19c-7.06,1.66-13.96,4.02-20.82,6.36l-.59.2c-.54.19-1.09.37-1.63.56l-.93.32q-.76.26-1.36.59t-1.22.22c-.32-1.39-.6-2.78-.85-4.19-.33-1.83-.78-3.61-1.3-5.39q-.65-2.31-.42-3.47c1.32-1.32,3.47-1.94,5.17-2.62l.91-.37c9.27-3.67,19.09-5.98,28.99-6.99l.62-.07c10.02-1.09,20.45-.79,28.32,6.12Z"/>
      <path class="cls-2" d="M277.59,167.8c.52.27,1.04.54,1.56.8,11.21,5.73,16.27,14.77,21.32,25.95.76,1.69,1.58,3.34,2.43,4.98-4.23-.3-8.38-1.03-12.54-1.78-.82-.15-1.64-.28-2.47-.4l-.83-.12-.72-.09c-.69-.19-.9-.4-1.29-.98-.2-.41-.39-.82-.58-1.23-.31-.61-.62-1.22-.94-1.82l-.26-.5c-.97-1.82-2.16-3.45-3.4-5.1l-.33-.44c-1.26-1.69-2.57-3.32-4.01-4.87-.49-.53-.95-1.07-1.41-1.62-1.06-1.21-2.25-2.26-3.47-3.31l-.63-.54c-2.01-1.69-4.13-3.22-6.28-4.73-.41-.29-.83-.59-1.24-.88-7.72-5.27-18.29-7.71-27.51-6.33-1.27.27-2.5.65-3.73,1.07-.43.15-.87.28-1.31.41l-.51-.26c.45-.24.91-.47,1.36-.7l.76-.4c3.44-1.65,7.24-2.4,10.93-3.25l.68-.16c11.72-2.58,24.08.8,34.42,6.3ZM285.23,152.18c.83.15,1.66.3,2.5.45l.7.12c3.08.57,5.89,1.71,8.76,2.95l.47.21c1.06.46,2.13.93,3.19,1.39l.69.3c11.02,4.85,16.2,13.66,20.48,24.59,2.2,6.17,2.21,13.03,2.16,19.49,0,.57,0,1.13,0,1.7,0,1.36-.01,2.73-.03,4.09-.83-.15-1.6-.35-2.4-.64l-.63-.23-.66-.24c-1.84-.66-3.67-1.24-5.56-1.73-.79-.26-1.36-.48-2.01-1q-.24-.69-.37-1.6c-.06-.37-.12-.74-.18-1.11l-.1-.65c-.82-5.09-1.85-9.99-3.7-14.82l-.29-.77c-1.48-3.84-3.27-7.45-5.34-11.01l-.37-.63c-3.02-5.14-6.51-9.9-10.77-14.08q-.38-.39-.87-1.03c-.45-.55-.88-.96-1.42-1.42-.98-.84-1.9-1.73-2.82-2.64l-.42-.42q-.99-.99-.99-1.28ZM368.68,150.65c-.39,1.1-.95,2.04-1.6,3.01l-.34.5c-1.65,2.42-3.56,4.66-5.51,6.85-5.86,6.64-10.89,14.67-12.15,23.57l-.1.7c-.37,2.77-.53,5.55-.69,8.34-.05.79-.09,1.57-.14,2.36-.03.48-.06.96-.08,1.45q-.2,3.42-.91,4.33c-.87.7-1.75,1.24-2.73,1.77l-.59.32c-1.79.97-3.62,1.86-5.46,2.75l-.84.41q-2.17,1.03-3.16,1.24-.95-9.13-1.02-11.77l-.03-.87c-.35-11.63,3.49-20.57,11.2-29.2.32-.36.63-.71.94-1.07,5.22-5.91,14.65-14.68,23.21-14.68ZM406.9,160.07h.62c3.65,0,7.27.12,10.86.81,1.7.32,3.41.5,5.12.68,1.09.12,2.19.24,3.28.35v.26h-.83q-7.34,0-14.53,1.28l-.62.17c-8.58,2.41-15.78,6.87-22.34,12.86-.52.46-1.04.92-1.57,1.37-4.57,4.02-8.1,8.82-11.26,14l-.87,1.41c-.12.21-.25.41-.38.62q-.8,1.3-1.34,1.45l-.62.06-.7.08-.76.08c-2.57.29-5.09.74-7.62,1.28l-.77.16-.68.15c-.65.11-1.26.12-1.92.11.24-2.77.73-5.47,1.28-8.19.04-.18.07-.37.11-.55,1.61-7.71,6.52-13.63,12.91-17.94,1.09-.71,2.22-1.36,3.36-1.98.22-.12.44-.24.66-.36,9.02-4.9,18.24-8.14,28.6-8.13h0ZM474.07,226.35h.54q6.98.02,10.15,1.02l.69.21c.67.2,1.33.41,2,.62l.55.17c1.84.57,3.64,1.22,5.43,1.92l.5.19q1.16.47,1.45,1.04l-.67-.12c-11.34-1.74-23.03,6.2-31.63,12.49-1.93,1.43-3.78,2.94-5.58,4.53l-.54.46c-1.23,1.06-2.42,2.16-3.61,3.27-.77.71-1.55,1.41-2.35,2.09-1.01.87-1.87,1.86-2.72,2.88-1.26-1.07-2.49-2.16-3.72-3.27-.55-.49-1.1-.97-1.66-1.45-.8-.7-1.56-1.43-2.3-2.19-.89-.9-1.8-1.75-2.76-2.58-.76-.66-1.5-1.34-2.23-2.02l-.42-.39-.99-.91c.57-.61,1.14-1.03,1.86-1.45l.68-.4.74-.44c2.48-1.48,4.88-3.05,7.28-4.66.81-.55,1.63-1.09,2.44-1.64,5.54-3.71,11.17-7.02,17.72-8.57l.49-.12c2.87-.65,5.73-.72,8.66-.71Z"/>
      <path class="cls-2" d="M284.21,237.93h.51l.24.52c2.27,4.96,4.77,9.12,8.39,13.18.44.49.86.99,1.29,1.49.28.31.55.62.83.93l.47.53c1.68,1.8,3.52,2.57,5.8,3.4,3.96,1.49,6.53,4.34,8.32,8.1,1.63,4.32,1.38,9.5,1.36,14.05v.83c-.02,6.55-.61,12.78-2.13,19.16l-.13.57c-.27,1.18-.58,2.35-.89,3.52l-.14.55c-.86,3.24-1.9,6.43-2.96,9.61l-.2.61q-2.37,7.12-3.9,7.97t-2.52.72c.15-1.09.41-2.06.8-3.1l.34-.92.18-.48c.19-.51.38-1.02.57-1.52.58-1.57,1.16-3.13,1.75-4.69,1.6-4.22,2.99-8.44,4.04-12.84l.18-.74c1.86-7.72,4.5-19.91.71-27.3-1.96-2.76-5.26-3.5-8.36-4.32-2.9-.78-5.01-1.89-6.8-4.4-.79-1.41-1.34-2.95-1.91-4.45-.19-.48-.39-.97-.59-1.45-.95-2.27-1.65-4.56-2.27-6.93-.15-.57-.3-1.15-.46-1.72-.24-.9-.48-1.8-.72-2.69l.31,1.4.27,1.24c.24,1.08.48,2.15.72,3.23l.14.61c.09.38.17.77.26,1.15.27,1.21.45,2.4.59,3.63l-1.12-.22-.72-.14c-.43-.09-.86-.19-1.29-.3-4-.99-8.08-.3-11.99.75l-.68.18c-.44.12-.88.24-1.31.36-1.48.4-2.62.39-4.13.14.47-1.06.99-1.38,2-1.95,1.84-1.08,3.51-2.34,5.17-3.68l.43-.35c4.35-3.51,8.29-7.8,9.2-13.51q.09-.48.35-.73Z"/>
      <path class="cls-2" d="M275.76,361.56l-1.02,3.07c-.05,1.08-.05,2.16-.05,3.24,0,.53,0,1.05-.01,1.58-.01,3.15.35,6.22,1.02,9.31l.13.61c.84,3.8,2.12,7.49,3.37,11.17.33.97.64,1.95.93,2.93,2.83,9.27,6.99,18.05,12.7,25.92q.34.53.34,1.04c-1.67-.13-3.04-.56-4.58-1.2l-.69-.28c-3-1.25-5.24-2.9-7.54-5.17l-.59-.58c-1.8-1.89-3.21-4.08-4.65-6.26-.35-.52-.7-1.04-1.05-1.55-1.44-2.13-2.48-4.33-3.43-6.71l-.3-.72c-1.51-3.83-2-8.02-2.51-12.08l-.08-.63c-.72-5.57-1.19-11.7,1.62-16.78l.33-.63c.98-1.79,3.87-6.28,6.07-6.28ZM246.07,255.08l.51.26-.31.3c-2.57,2.7-4.07,6.22-5.32,9.68l-.28.75c-1.53,4.24-2.01,8.75-2.49,13.2-.07.67-.15,1.34-.23,2l-.06.61c-.17,1.43-.48,2.61-1.53,3.65l-.59.45-.69.53c-.98.72-1.98,1.43-2.97,2.14-1.46,1.04-2.88,2.13-4.29,3.23-.41.32-.83.64-1.24.95-5.74,4.35-9.65,8.9-13.2,15.17q-.76,1.32-1.32,1.6c.8-3.99,1.9-7.88,3.07-11.77l.23-.78c1.8-5.96,4.99-10.77,8.47-15.86l.96-1.41c.98-1.44,1.97-2.87,2.96-4.3,1.03-1.47,2.03-2.96,3.02-4.46,1.53-2.32,3.08-4.57,4.84-6.73l.37-.45c2.81-3.42,6.11-6.76,10.13-8.77Z"/>
      <path class="cls-2" d="M358.7,321.89c1.32,1.52,1.86,3.29,1.86,5.28v.86c-.06.74-.19,1.17-.58,1.8-.98-.16-1.77-.45-2.66-.88-5.28-2.45-11.73-1.57-17.34-.95-2.68.29-5.35.47-8.04.53-.4.01-.8.02-1.2.04-2.81.11-5.59-.12-8.38-.37l-.55-.05c-1.95-.18-3.87-.39-5.79-.77-3.58-.68-9.27-1.18-12.5.75-.71.5-1.3,1.07-1.9,1.7h-.51c-.17-2.73-.24-4.9,1.54-7.17l.51-.71c1.2-.88,2.32-.72,3.77-.67h.78c1.41.04,2.81.09,4.21.16,4.97.23,9.94.23,14.92.23,1.22,0,2.45,0,3.67,0,4.85,0,9.7-.02,14.56-.15l.59-.02c2.49-.07,4.98-.18,7.46-.33q4.18-.24,5.6.71Z"/>
      <path class="cls-2" d="M414.24,267.37h.51c.34.4.66.8.98,1.22.89,1.12,1.82,2.1,2.88,3.06,2.72,2.45,5.39,4.98,7.65,7.86.56.71,1.15,1.4,1.74,2.09,5.59,6.71,10.34,14.06,12.06,22.7l.17.83c.36,1.94.44,3.8.38,5.77-.88-.84-1.57-1.66-2.22-2.69-.84-1.29-1.73-2.51-2.68-3.71-.67-.85-1.31-1.73-1.92-2.62-1.12-1.61-2.32-3.07-3.69-4.48-.51-.53-.96-1-1.29-1.66-.31-.6-.65-.67-1.26-.96-.4-.38-.79-.77-1.17-1.17-.88-.9-1.77-1.73-2.75-2.51-1.13-.9-2.2-1.84-3.26-2.82l-.43-.4c-1.08-1-1.63-1.69-1.84-3.15l-.12-.81-.13-.86c-.09-.59-.18-1.17-.27-1.76l-.13-.86c-.64-4.08-1.76-8.01-3.02-11.94q-.18-.62-.18-1.13ZM437.12,179.78c3.87,3.23,6.01,7.85,6.56,12.84.13,2.44.27,4.99,0,7.42l-.51.51-.07-.72c-.53-4.77-2.46-8.4-5.82-11.82l-.48-.49c-4.27-4.03-11.14-5.89-16.87-5.98h-.57c-8.99-.13-15.61,1.75-22.37,7.77-.7.62-1.34,1.16-2.21,1.52.46-3.12,4.32-6.25,6.74-8.1.81-.57,1.63-1.1,2.47-1.63l.88-.58c9.7-6.24,22.74-8.23,32.24-.75h0ZM254.37,182.07q5.84,5.04,7.32,8.25l-.26.51-.4-.42c-5.63-5.84-12.38-7.92-20.31-8.11-4.38-.05-8.62.36-12.57,2.39l-.78.39c-4.06,2.19-7.07,6.22-8.69,10.51-.59,2.14-.81,4.3-1.03,6.5l-.51-.26c-1.14-3.9-.84-8.69.26-12.54l.17-.69c1.08-4.13,3.9-7.66,7.52-9.85,8.35-4.88,21.83-2.56,29.28,3.31ZM209.72,202.35l.14.48c1.09,3.67,2.27,7.24,3.7,10.79l-.87-.19c-5.8-1.23-11.63-1.93-17.54-2.38l-.58-.04c-.52-.04-1.03-.08-1.55-.12-.67-.06-1.34-.13-2-.22-4.42-.53-9.31-.49-13.55.9l-.53.17c-2.21.73-4.24,1.66-6.26,2.82q-.63.34-1.15.34c.96-2.6,4.81-4.34,7.17-5.43.34-.15.68-.3,1.02-.45l.92-.41c2.48-1.05,5.03-1.78,7.62-2.48.62-.17,1.25-.34,1.87-.52,4.96-1.38,9.95-2.27,15.07-2.82l.63-.07c.6-.06,1.19-.13,1.79-.19l.53-.06c1.19-.12,2.36-.14,3.56-.12ZM453.11,202.54c5.08.06,10.21.66,15.15,1.86l.78.18c5.14,1.23,9.73,3.1,14.32,5.7v1.54l-.71-.16-.95-.21-.94-.21c-1.91-.37-3.74-.49-5.68-.51h-.77c-.83-.01-1.66-.02-2.48-.02h-.86c-5.22,0-10.34.36-15.51,1.04-.76.1-1.53.19-2.29.29-2.08.26-4.11.58-6.15,1.06.16-1.21.51-2.27.96-3.39.69-1.77,1.23-3.56,1.71-5.39.57-2.14,1.41-1.77,3.43-1.77Z"/>
      <path class="cls-2" d="M384.29,265.83l.57.16c1.78.47,3.48.76,5.31.86.23,1.62-.55,2.58-1.41,3.87l-.42.65c-.28.43-.56.86-.85,1.29-.34.51-.67,1.02-1,1.53-2.44,3.75-4.86,5.6-9.28,6.55-2.19.46-3.82.67-5.92-.2q-2.29-.85-4.67-.64c-2.35,1.59-3.88,5.17-5.12,7.68-.16-2.63.13-5.17.5-7.78l.07-.51q.41-2.92.71-3.23c2.23-.33,4.49-.33,6.74-.38,4.26-.09,7.8-.35,10.92-3.46l.41-.39c1.35-1.42,2.09-3.24,2.92-4.99.17-.34.34-.68.51-1.02ZM274.99,265.83l.23.44c.36.67.72,1.34,1.08,2.01l.37.69c1.78,3.28,4.17,5.4,7.79,6.48,1.42.32,2.78.4,4.23.42h.59c.81.01,1.63.02,2.44.02.6,0,1.2,0,1.8.01h.56q.52,0,1.39.16c1.57,1.9,1.04,5.34,1.06,7.71v.62c0,1.01-.04,1.94-.29,2.93h-.51l-.27-.54c-.4-.82-.8-1.63-1.21-2.45l-.42-.86-.41-.83-.37-.76c-.42-.74-.83-1.37-1.42-1.99-1.26-.02-2.15.29-3.3.78-2.75,1.04-6.05.79-8.78-.19-3.42-1.59-5.57-5.12-7.71-8.09-.45-.62-.91-1.23-1.38-1.84l-.33-.42c-.29-.38-.59-.75-.88-1.12q-.4-.64-.4-1.66c.83-.26,1.66-.51,2.5-.77l.71-.22.69-.21.63-.19q.59-.14,1.61-.14ZM403.75,261.74c.93.31,1.13.72,1.59,1.56.28.69.27,1.29.2,2.03l-.51.26.34.39c2.62,3.89,1.92,9.19,1.08,13.51q-4.08,19.99-10.79,25.16c-1.43,1.14-2.71,2.39-3.99,3.69l-.66.66c-1.14,1.15-2.25,2.32-3.29,3.56q-.35.38-.87.64c.16-.83.46-1.4.91-2.11.68-1.1,1.27-2.23,1.84-3.39,1.47-2.98,3.02-5.91,4.9-8.65,2.6-3.82,4.73-7.82,6.44-12.11.22-.55.45-1.1.68-1.65,1.18-2.88,1.79-5.89,2.38-8.94l.16-.82c.34-2.49.22-4.97-.35-7.42l-.12-.54c-.3-1.17-.79-2.02-1.48-3,.03-.88.41-1.21,1.02-1.79q.3-.54.51-1.02Z"/>
      <path class="cls-2" d="M252.47,262.5h.51l.07.98c1.18,15.51,3.99,28.12,12.71,41.22.93,1.4,1.84,2.82,2.72,4.26l.36.58q.78,1.28.78,1.86c-.76-.34-1.25-.69-1.81-1.3l-.43-.47c-.14-.16-.29-.32-.44-.49-.29-.32-.57-.63-.86-.95l-.42-.46c-.72-.78-1.47-1.52-2.24-2.24-4.74-4.51-7.81-9.97-9.93-16.11l-.32-.89c-.85-2.53-1.29-5.18-1.73-7.81l-.14-.84c-.13-1.06-.16-2.09-.16-3.16v-.63c0-.44,0-.88,0-1.32,0-.66,0-1.32-.01-1.98-.01-3.49,0-6.97,1.34-10.24Z"/>
      <path class="cls-2" d="M380.2,264.04c.41.41.31.85.32,1.42-.02,1.73-.31,2.92-1.55,4.16-2.42,1.66-4.61,1.92-7.47,1.87h-.82c-.66-.01-1.33-.02-1.99-.03.22-1.1.8-1.71,1.55-2.5l.39-.41c.26-.27.52-.54.77-.81.31-.33.62-.66.92-.99,2.41-2.55,4.48-3,7.89-2.72ZM284.74,265.15c2.51,1.43,4.12,3.64,5.61,6.06v.26q-7.16.25-9.58-1.9l-.4-.41-.72-.69c-.76-1.15-1.04-2.33-1.33-3.66,2.21-.98,4.27-.66,6.42.34Z"/>
    </g>
  </g>
  <g id="tagline-91e39464-2c61-480e-9f0e-c86528158fff-logo">
    <g>
      <g id="c2410ff9-b372-4fd6-a0cf-cdbf1ccb92e7-path-0">
        <path class="cls-1" d="M121.32,498.36l-26.62,23.43,3.68,4.18,11.6-10.2,6.7,7.62,4.18-3.68-6.7-7.62,6.66-5.86,7.37,8.38,4.18-3.68-11.05-12.56Z"/>
      </g>
      <g id="_3f92e847-d6e0-41cb-8830-77c895ef49c8-path-0" data-name="3f92e847-d6e0-41cb-8830-77c895ef49c8-path-0">
        <path class="cls-1" d="M143.71,522.21l-24.15,25.97,4.08,3.79,24.15-25.97-4.08-3.79Z"/>
      </g>
      <g id="_2914ab14-d8f0-49b0-bd13-af5a75ba74d1-path-0" data-name="2914ab14-d8f0-49b0-bd13-af5a75ba74d1-path-0">
        <path class="cls-1" d="M159.75,536.52l-21.28,28.37,4.46,3.34,12.59-16.78-5.56,22.05,4.46,3.34,21.28-28.37-4.46-3.34-13.29,17.72,5.86-23.29-4.06-3.04Z"/>
      </g>
      <g id="fd2682f4-f6bf-4ede-b178-6e72b5c78b76-path-0">
        <path class="cls-1" d="M192.99,559.38l-22.77,27.86,4.85,2.75,2.27-2.8,6.57,3.72-1.22,3.39,4.85,2.75,12.21-33.84-6.75-3.83ZM180.93,582.82l10.57-12.91-5.69,15.68-4.88-2.77Z"/>
      </g>
      <g id="_4fbde6ac-ad68-4f8d-8bd9-34a42c5d71bf-path-0" data-name="4fbde6ac-ad68-4f8d-8bd9-34a42c5d71bf-path-0">
        <path class="cls-1" d="M218.42,572.75l-13.43,32.82,5.16,2.11,7.94-19.42.18,22.74,5.16,2.11,13.43-32.82-5.16-2.11-8.39,20.5-.2-24.02-4.69-1.92Z"/>
      </g>
      <g id="_9daca855-67be-45de-92a6-1782e24170ad-path-0" data-name="9daca855-67be-45de-92a6-1782e24170ad-path-0">
        <path class="cls-1" d="M249.18,594.37l-4.23,16.07c-1.47,5.57,1.28,10.59,7.12,12.13,5.59,1.47,10.61-1.28,12.13-7.06l.65-2.45-5.39-1.42-.65,2.45c-.81,3.08-2.28,3.89-5.32,3.09s-3.95-2.29-3.15-5.32l4.23-16.07c.83-3.14,2.28-3.91,5.37-3.1,3.08.81,3.91,2.28,3.11,5.33l-.65,2.45,5.39,1.42.65-2.45c1.47-5.59-1.3-10.61-7.07-12.13s-10.62,1.18-12.17,7.06Z"/>
      </g>
      <g id="a564517c-e7b0-42a2-ad0e-d3a96e3a533c-path-0">
        <path class="cls-1" d="M285.81,593.08l-5.45,35.04,5.51.86,5.45-35.04-5.51-.86Z"/>
      </g>
      <g id="c1fe89f4-55e1-4262-a33f-ba24ae4d3c91-path-0">
        <path class="cls-1" d="M310.38,596.05l-8.11,35.05,5.56.32.8-3.51,7.54.44.41,3.58,5.56.32-4.01-35.76-7.75-.45ZM309.93,622.41l3.77-16.25,1.83,16.58-5.6-.32Z"/>
      </g>
      <g id="f0f1e84d-bd6c-4683-b4c8-6db420a08f27-path-0">
        <path class="cls-1" d="M339.02,596.73l2.18,35.4,16.7-1.03-.34-5.56-11.14.69-1.84-29.84-5.56.34Z"/>
      </g>
      <g id="_11c64845-ab68-42aa-9810-ab83eec4505e-path-0" data-name="11c64845-ab68-42aa-9810-ab83eec4505e-path-0">
        <path class="cls-1" d="M389.48,590.36l8.83,34.35,5.4-1.39-3.85-14.96,9.82-2.53-1.39-5.4-9.82,2.53-2.21-8.6,10.81-2.78-1.39-5.4-16.21,4.17Z"/>
      </g>
      <g id="dab472b0-84b5-462c-80e8-49fc481c27f4-path-0">
        <path class="cls-1" d="M430.87,577.41l-9.22,3.68,13.15,32.94,5.17-2.07-5.75-14.4,4.05-1.62c2.96-1.18,4.54-.55,5.74,2.47l4.11,10.3,5.17-2.07-4.11-10.3c-1.11-2.78-2.98-4.71-5.26-5.66.99-2.3.99-5.03-.08-7.71-2.24-5.6-7.58-7.73-12.98-5.57ZM432.16,592.39l-3.27-8.19,4.05-1.62c2.96-1.18,4.54-.55,5.74,2.47s.49,4.54-2.47,5.72l-4.05,1.62Z"/>
      </g>
      <g id="_05bd5b8b-6a39-4fca-b2d4-d2389c67b13c-path-0" data-name="05bd5b8b-6a39-4fca-b2d4-d2389c67b13c-path-0">
        <path class="cls-1" d="M453.85,566.98l16.51,31.38,4.93-2.59-16.51-31.38-4.93,2.59Z"/>
      </g>
      <g id="_880a4e40-5844-4850-b8cf-668c1eab8a53-path-0" data-name="880a4e40-5844-4850-b8cf-668c1eab8a53-path-0">
        <path class="cls-1" d="M472.59,556.56l19.56,29.58,13.96-9.23-3.07-4.65-9.31,6.16-5.45-8.24,8.46-5.6-3.07-4.65-8.46,5.6-4.9-7.4,9.31-6.16-3.07-4.65-13.96,9.23Z"/>
      </g>
      <g id="_47e8b3fb-df5a-47c7-99cc-cf5055ae07bc-path-0" data-name="47e8b3fb-df5a-47c7-99cc-cf5055ae07bc-path-0">
        <path class="cls-1" d="M499.58,537.63l23.16,26.86,4.22-3.64-13.7-15.89,20.35,10.15,4.22-3.64-23.16-26.86-4.22,3.64,14.47,16.77-21.49-10.71-3.84,3.31Z"/>
      </g>
      <g id="_60e8d957-fb24-4b13-8b84-0f41c30fd9b3-path-0" data-name="60e8d957-fb24-4b13-8b84-0f41c30fd9b3-path-0">
        <path class="cls-1" d="M532.81,505.83l-6.64,7.47,26.5,23.56,6.64-7.47c3.97-4.47,3.5-10.18-.82-14.02l-11.66-10.36c-4.31-3.83-10.05-3.64-14.02.82ZM552.22,528.99l-18.18-16.16,2.94-3.3c2.12-2.38,3.82-2.44,6.16-.36l11.66,10.36c2.35,2.09,2.48,3.77.36,6.16l-2.94,3.3Z"/>
      </g>
    </g>
  </g>
</svg>